<?xml version="1.0" encoding="UTF-8" standalone="no"?>
<svg
   xmlns:dc="http://purl.org/dc/elements/1.1/"
   xmlns:cc="http://creativecommons.org/ns#"
   xmlns:rdf="http://www.w3.org/1999/02/22-rdf-syntax-ns#"
   xmlns:svg="http://www.w3.org/2000/svg"
   xmlns="http://www.w3.org/2000/svg"
   xmlns:sodipodi="http://sodipodi.sourceforge.net/DTD/sodipodi-0.dtd"
   xmlns:inkscape="http://www.inkscape.org/namespaces/inkscape"
   id="park-marker"
   width="48"
   height="48"
   viewBox="0 0 512 512"
   version="1.1"
   inkscape:version="0.91 r13725"
   sodipodi:docname="benefit-marker.svg">
  <metadata
     id="metadata3402">
    <rdf:RDF>
      <cc:Work
         rdf:about="">
        <dc:format>image/svg+xml</dc:format>
        <dc:type
           rdf:resource="http://purl.org/dc/dcmitype/StillImage" />
        <dc:title />
      </cc:Work>
    </rdf:RDF>
  </metadata>
  <defs
     id="defs3400" />
  <sodipodi:namedview
     pagecolor="#ffffff"
     bordercolor="#666666"
     borderopacity="1"
     objecttolerance="10"
     gridtolerance="10"
     guidetolerance="10"
     inkscape:pageopacity="0"
     inkscape:pageshadow="2"
     inkscape:window-width="1440"
     inkscape:window-height="813"
     id="namedview3398"
     showgrid="false"
     inkscape:zoom="4.4267831"
     inkscape:cx="-29.198902"
     inkscape:cy="24"
     inkscape:window-x="0"
     inkscape:window-y="1"
     inkscape:window-maximized="1"
     inkscape:current-layer="park-marker" />
  <path
     fill="transparent"
     d=" M 0.00 0.00 L 512.00 0.00 L 512.00 512.00 L 0.00 512.00 L 0.00 0.00 Z"
     id="path3390" />
  <path
     fill="#669834"
     d=" M 250.15 17.27 C 283.73 15.48 317.79 23.43 347.01 40.09 C 376.34 56.64 400.79 81.71 416.60 111.44 C 430.15 136.69 437.36 165.28 437.53 193.93 C 437.86 228.98 430.36 263.86 417.20 296.28 C 400.14 338.85 374.94 377.67 346.64 413.58 C 322.97 443.03 297.09 470.73 269.04 496.06 C 266.30 498.41 263.74 500.98 260.83 503.13 C 259.53 504.14 257.73 503.33 256.77 502.26 C 228.52 477.56 202.48 450.37 178.58 421.45 C 153.56 390.87 130.95 358.10 113.38 322.63 C 96.75 289.02 84.63 252.66 82.05 215.06 C 80.05 191.90 81.66 168.29 88.22 145.93 C 99.21 107.29 123.89 72.78 156.72 49.68 C 183.95 30.30 216.77 18.94 250.15 17.27 Z"
     id="path3392"
     style="fill:#00a018;fill-opacity:1" />
  <path
     fill="#F8F2E4"
     d=" M 245.11 59.19 C 271.98 56.40 299.67 61.71 323.46 74.57 C 349.74 88.56 371.17 111.43 383.39 138.59 C 394.80 163.51 398.19 191.93 393.37 218.88 C 388.32 247.35 373.81 274.01 352.77 293.82 C 330.68 314.73 301.43 328.03 271.08 330.48 C 242.75 333.04 213.65 326.41 189.30 311.68 C 164.09 296.68 143.98 273.27 132.98 246.06 C 122.30 220.07 120.17 190.74 126.58 163.41 C 132.63 137.65 146.40 113.78 165.73 95.70 C 187.17 75.18 215.59 62.20 245.11 59.19 Z"
     id="path3394" />
  <g
     id="g3454"
     transform="matrix(8.0743669,0,0,8.0743669,-23.176213,-277.32293)"
     style="fill:#00a018;fill-opacity:1">
    <path
       id="path3456"
       d="m 42.496454,58.51152 c -1.333799,-1.055916 -3.407933,-1.980841 -5.325268,-2.723169 l 0,-3.538918 c 1.284177,0.416803 2.433389,0.833622 3.370222,1.224629 0.152833,0.06354 0.331465,0.0099 0.420781,-0.129015 l 1.893516,-2.86609 c 0.05365,-0.08138 0.06942,-0.180611 0.04763,-0.275879 -0.02387,-0.09527 -0.08535,-0.174675 -0.172682,-0.222303 -1.07974,-0.579562 -3.288841,-1.478695 -5.559473,-2.054287 l 0,-2.076119 c 0,-0.238175 -0.192527,-0.430704 -0.428721,-0.430704 l -3.451601,0 c -0.238178,0 -0.430703,0.192529 -0.430703,0.430704 l 0,1.544196 c -3.197544,0.146872 -5.366953,1.262342 -6.61342,3.409915 -0.97851,1.68313 -0.974542,3.580605 0.0064,4.950134 1.024166,1.464799 2.697362,2.115819 4.813185,2.939522 l 0.271916,0.105195 c 0.49025,0.186567 1.006301,0.379096 1.522354,0.569637 l 0,4.311027 c -2.238939,-0.531928 -4.342851,-1.623587 -4.731871,-1.887553 -0.150846,-0.103228 -0.357263,-0.06939 -0.468417,0.0754 l -2.294449,2.99114 c -0.05753,0.0735 -0.08147,0.166714 -0.06743,0.258018 0.01186,0.09133 0.06152,0.174666 0.136954,0.230237 1.387381,1.028123 3.40594,2.010625 5.40267,2.625914 0.472389,0.146871 1.180965,0.339398 2.024515,0.502164 l 0,1.615638 c 0,0.236192 0.192528,0.428719 0.430708,0.428719 l 3.449615,0 c 0.236195,0 0.428723,-0.192527 0.428723,-0.428719 l 0,-1.341728 c 3.062569,-0.252083 5.349088,-1.581912 6.657081,-3.888265 1.258373,-2.226974 0.77805,-4.53929 -1.331811,-6.349445 z m -9.636294,-6.869452 0,2.610044 c -0.992409,-0.319563 -1.577932,-0.627209 -1.514418,-1.385404 0.06355,-0.778056 0.809809,-1.095625 1.514418,-1.22464 z m 4.311026,9.32865 c 0.72843,0.32551 1.280208,0.666908 1.472733,1.093636 0.109166,0.24215 0.09925,0.518037 -0.02584,0.847512 -0.222296,0.577589 -0.795912,0.877296 -1.446929,1.030133 l 0,-2.971281 z"
       inkscape:connector-curvature="0"
       style="fill:#00a018;fill-opacity:1" />
    <path
       style="fill:#00a018;fill-opacity:1"
       d="m -23.16574,38.241161 -0.06946,-0.939163 -1.92013,-0.603617 c -2.040768,-0.64154 -4.931732,-2.010567 -5.375928,-2.545791 -0.215449,-0.259601 -0.02416,-0.634815 0.987274,-1.936526 l 1.2545,-1.614539 0.930742,0.47483 c 1.051142,0.536252 3.680193,1.552936 4.015751,1.552936 0.128753,0 0.22074,-0.925471 0.22074,-2.220848 l 0,-2.220849 -2.114834,-0.837035 c -2.674519,-1.058554 -4.003138,-1.900316 -4.649086,-2.945482 -1.946564,-3.149607 0.584684,-7.062604 5.106299,-7.893708 l 1.544672,-0.283922 0.06988,-0.956533 0.06988,-0.956533 1.963196,0.06507 1.963196,0.06507 0.112948,1.208537 0.112949,1.208536 1.581284,0.505587 c 2.113441,0.675735 3.953209,1.489441 3.953209,1.748455 0,0.156644 -1.438233,2.448402 -1.935159,3.083587 -0.03192,0.0408 -0.784644,-0.187921 -1.672723,-0.508269 -0.88808,-0.320348 -1.710286,-0.582451 -1.827125,-0.582451 -0.116839,0 -0.212435,0.815747 -0.212435,1.812772 0,1.770238 0.01458,1.818264 0.621219,2.046802 1.717166,0.646901 4.033939,1.912814 4.854336,2.652469 3.045777,2.746016 1.948853,7.09158 -2.278627,9.026984 -0.67578,0.309382 -1.671545,0.612431 -2.21281,0.673439 -0.972918,0.109662 -0.984118,0.120873 -0.984118,0.985135 l 0,0.874213 -2.02009,0 -2.02009,0 -0.06946,-0.939163 z m 5.108083,-5.863889 c 0.861167,-0.677394 0.742048,-1.713713 -0.264272,-2.299138 l -0.734168,-0.427101 0,1.602078 c 0,0.881143 0.08795,1.602078 0.195434,1.602078 0.107488,0 0.468841,-0.215063 0.803006,-0.477917 z m -5.064598,-10.591069 c 0,-1.204788 -0.0502,-1.355386 -0.451795,-1.355386 -0.55872,0 -1.356585,0.766577 -1.351927,1.298911 0.0044,0.505927 0.221867,0.821355 0.787183,1.141926 0.872327,0.494665 1.016539,0.340677 1.016539,-1.085451 z"
       id="path3466"
       inkscape:connector-curvature="0"
       transform="translate(56.177272,31.16471)" />
  </g>
</svg>
