<?xml version="1.0" encoding="UTF-8" standalone="no"?>
<svg
   xmlns:dc="http://purl.org/dc/elements/1.1/"
   xmlns:cc="http://creativecommons.org/ns#"
   xmlns:rdf="http://www.w3.org/1999/02/22-rdf-syntax-ns#"
   xmlns:svg="http://www.w3.org/2000/svg"
   xmlns="http://www.w3.org/2000/svg"
   xmlns:sodipodi="http://sodipodi.sourceforge.net/DTD/sodipodi-0.dtd"
   xmlns:inkscape="http://www.inkscape.org/namespaces/inkscape"
   id="park-marker"
   width="48"
   height="48"
   viewBox="0 0 512 512"
   version="1.1"
   inkscape:version="0.91 r13725"
   sodipodi:docname="bike-rack.svg">
  <metadata
     id="metadata3402">
    <rdf:RDF>
      <cc:Work
         rdf:about="">
        <dc:format>image/svg+xml</dc:format>
        <dc:type
           rdf:resource="http://purl.org/dc/dcmitype/StillImage" />
        <dc:title />
      </cc:Work>
    </rdf:RDF>
  </metadata>
  <defs
     id="defs3400" />
  <sodipodi:namedview
     pagecolor="#ffffff"
     bordercolor="#666666"
     borderopacity="1"
     objecttolerance="10"
     gridtolerance="10"
     guidetolerance="10"
     inkscape:pageopacity="0"
     inkscape:pageshadow="2"
     inkscape:window-width="1440"
     inkscape:window-height="813"
     id="namedview3398"
     showgrid="false"
     inkscape:zoom="3.1302083"
     inkscape:cx="-8.9810604"
     inkscape:cy="-3.1077208"
     inkscape:window-x="14"
     inkscape:window-y="6"
     inkscape:window-maximized="0"
     inkscape:current-layer="layer1" />
  <path
     fill="transparent"
     d=" M 0.00 0.00 L 512.00 0.00 L 512.00 512.00 L 0.00 512.00 L 0.00 0.00 Z"
     id="path3390" />
  <path
     fill="#F8F2E4"
     d=" M 245.11 59.19 C 271.98 56.40 299.67 61.71 323.46 74.57 C 349.74 88.56 371.17 111.43 383.39 138.59 C 394.80 163.51 398.19 191.93 393.37 218.88 C 388.32 247.35 373.81 274.01 352.77 293.82 C 330.68 314.73 301.43 328.03 271.08 330.48 C 242.75 333.04 213.65 326.41 189.30 311.68 C 164.09 296.68 143.98 273.27 132.98 246.06 C 122.30 220.07 120.17 190.74 126.58 163.41 C 132.63 137.65 146.40 113.78 165.73 95.70 C 187.17 75.18 215.59 62.20 245.11 59.19 Z"
     id="path3394" />
  <path
     style="fill:none;fill-opacity:1;stroke:none;stroke-opacity:1"
     d="m 20.698562,2.2236554 c 1.748424,-0.4600919 5.4031,-0.4414653 7.345006,0.037435 8.141515,2.0078068 13.251158,9.1235006 12.671439,17.6462516 -0.417922,6.144048 -3.288106,12.388093 -8.911085,19.385931 -1.777779,2.212457 -7.045575,7.567572 -7.44418,7.567572 C 9.3309351,35.986959 -0.39127409,8.306281 20.698562,2.2236554 Z m 7.471015,28.3076606 c 2.15842,-0.735832 3.900882,-1.873582 5.56673,-3.634822 C 38.511258,21.848112 38.285701,13.928471 33.226919,9.0111763 30.668436,6.5242501 27.92039,5.4152755 24.316257,5.4152755 c -3.675277,0 -6.441914,1.1437416 -9.033704,3.7345792 -3.947399,3.9459463 -4.962934,9.6571253 -2.601408,14.6298263 1.488736,3.134855 5.104319,6.140465 8.359595,6.949271 1.93962,0.481919 5.418402,0.385474 7.128837,-0.197636 z"
     id="path3566"
     inkscape:connector-curvature="0"
     transform="scale(10.666667,10.666667)"
     sodipodi:nodetypes="csssccssssssss" />
  <path
     style="fill:none;fill-opacity:1;stroke:none;stroke-opacity:1"
     d="M 21.022338,43.8677 C 14.402883,37.176358 10.328712,30.715545 8.5754979,24.129521 7.8141956,21.269655 7.7092889,16.481076 8.3558988,14.105682 9.9484622,8.2552211 14.76849,3.5877229 20.618656,2.2309787 c 2.000124,-0.4638596 5.500157,-0.4560701 7.449283,0.016579 0.856302,0.2076471 2.503108,0.8310731 3.659569,1.3853911 1.768449,0.8476588 2.41474,1.3202284 4.066158,2.973179 2.155592,2.1575957 3.182638,3.7161284 4.002583,6.0738784 2.236308,6.430507 0.5762,14.251441 -4.698477,22.134969 -0.929006,1.388494 -2.333342,3.319919 -3.120742,4.292056 -1.983014,2.448257 -7.21095,7.753814 -7.640376,7.753814 -0.19433,0 -1.685772,-1.346915 -3.314316,-2.993145 z M 28.750575,30.313052 C 38.820369,26.191858 40.115194,13.177666 31.039078,7.3114884 28.951853,5.9624505 27.152496,5.4694234 24.316257,5.4694234 c -3.966971,0 -6.611134,1.1763375 -9.421937,4.1916404 -5.861274,6.2877112 -3.929359,16.3125202 3.885744,20.1633232 2.082906,1.02633 3.119716,1.218267 6.100937,1.129423 2.020442,-0.06021 2.74368,-0.179972 3.869574,-0.640758 z"
     id="path3568"
     inkscape:connector-curvature="0"
     transform="scale(10.666667,10.666667)" />
  <path
     style="fill:#b22222;fill-opacity:1"
     d="m 7.6176629,19.62135 c 0.01084,-0.263158 0.064367,-0.316686 0.1364799,-0.13648 0.065255,0.16307 0.05723,0.357907 -0.017834,0.432971 -0.075064,0.07506 -0.1284545,-0.05836 -0.1186458,-0.296491 z"
     id="path3570"
     inkscape:connector-curvature="0"
     transform="scale(10.666667,10.666667)" />
  <g
     inkscape:groupmode="layer"
     id="layer1"
     inkscape:label="Layer 1"
     style="display:inline">
    <path
       style="fill:#b22222;fill-opacity:1"
       d="M 22.283178,45.307452 C 20.061939,43.253894 17.219273,40.049928 15.03869,37.1422 7.6616855,27.305231 5.7825368,17.377584 9.9143021,10.069778 13.305506,4.0717952 20.488454,0.70507402 27.180455,1.9769555 c 3.529079,0.6707363 6.289808,2.1067908 8.777572,4.5658473 3.689455,3.6468832 5.290259,8.2485872 4.819194,13.8533702 -0.570585,6.788878 -4.264469,13.914538 -11.203469,21.611965 -2.009968,2.229655 -4.960702,5.078265 -5.257495,5.075534 -0.06212,-6.77e-4 -0.977008,-0.799869 -2.033079,-1.77622 z m 5.185403,-14.59272 C 30.903169,29.800711 34.323135,27.042735 35.800296,23.99576 38.74496,17.921722 36.638119,10.702079 30.913354,7.2493963 23.760535,2.935433 14.732688,6.4197919 11.978383,14.557477 c -0.638587,1.886725 -0.589357,5.722254 0.09913,7.723542 1.351783,3.929333 4.78665,7.210097 8.737326,8.34533 1.694579,0.486938 4.991529,0.530733 6.653738,0.08838 z"
       id="path3564"
       inkscape:connector-curvature="0"
       transform="scale(10.666667,10.666667)" />
    <path
       style="fill:#0a0a0a;fill-opacity:1;stroke:#0a0a0a;stroke-opacity:1"
       d="M 20.813378,43.754752 C 11.695127,34.42649 7.5287864,26.077732 7.8147899,17.707421 7.9618473,13.403572 9.349152,10.078154 12.288497,6.9837876 18.87865,0.04607019 29.251207,-0.10772058 35.991281,6.6323537 43.412907,14.05398 42.420519,25.374194 33.2812,37.546306 c -2.059586,2.74304 -8.453895,9.551347 -8.963651,9.543999 -0.135957,-0.002 -1.712834,-1.502959 -3.504171,-3.335553 z m 6.676221,-13.052004 c 4.428013,-1.153353 8.113854,-4.839194 9.267206,-9.267206 0.441215,-1.693937 0.442301,-4.594929 0.0024,-6.322334 C 35.852855,11.554538 33.239249,8.3213454 30.015386,6.7707304 24.871671,4.296703 19.273181,5.2286025 15.27792,9.2238628 c -2.58026,2.5802612 -3.776161,5.4498332 -3.776161,9.0609262 0,3.603387 1.185832,6.423303 3.800012,9.036451 1.693578,1.692909 3.579043,2.795769 5.761559,3.370091 1.649872,0.434159 4.78189,0.439723 6.426269,0.01141 l 0,9e-6 z"
       id="path4384"
       inkscape:connector-curvature="0"
       transform="scale(10.666667,10.666667)" />
  </g>
  <path
     id="path4508"
     overflow="visible"
     d="m 262.38935,84.729967 c -17.02468,0 -31.75287,7.0621 -40.92067,18.534653 -9.16779,11.47258 -12.99833,26.34224 -12.99833,42.36496 l 0,8.42483 23.10815,0 0,-8.42483 c 0,-12.16926 2.99405,-21.72873 7.94342,-27.92237 4.94934,-6.19359 11.63084,-9.86909 22.86743,-9.86909 11.26598,0 17.93351,3.47294 22.86742,9.6284 4.93395,6.15547 7.94342,15.87133 7.94342,28.16306 l 0,8.42483 23.10816,0 0,-8.42483 c 0,-16.11591 -4.05582,-31.14888 -13.23903,-42.60565 -9.18321,-11.456803 -23.68469,-18.293963 -40.67997,-18.293963 z m -53.919,77.027143 c -12.7557,0 -23.10815,10.35245 -23.10815,23.10816 l 0,77.02718 c 0,12.75569 10.35245,23.10814 23.10815,23.10814 l 107.838,0 c 12.75569,0 23.10814,-10.35245 23.10814,-23.10814 l 0,-77.02718 c 0,-12.75571 -10.35245,-23.10816 -23.10814,-23.10816 l -107.838,0 z m 53.919,38.51359 c 8.50379,0 15.40544,6.90165 15.40544,15.40545 0,5.68461 -3.11191,10.5662 -7.70274,13.23902 l 0,17.57183 c 0,4.24421 -3.4585,7.7027 -7.7027,7.7027 -4.24421,0 -7.70271,-3.45849 -7.70271,-7.7027 l 0,-17.57183 c -4.59083,-2.67282 -7.70274,-7.54673 -7.70274,-13.23902 0,-8.5038 6.90165,-15.40545 15.40545,-15.40545 z"
     style="color:#000000;line-height:normal;font-family:'Bitstream Vera Sans';-inkscape-font-specification:'Bitstream Vera Sans';text-indent:0;text-align:start;text-transform:none;block-progression:tb;overflow:visible;enable-background:accumulate;fill:#0a0a0a;fill-opacity:1"
     inkscape:connector-curvature="0" />
</svg>
